<svg width="8" height="8" viewBox="0 0 8 8" fill="none" xmlns="http://www.w3.org/2000/svg">
<path fill-rule="evenodd" clip-rule="evenodd" d="M7.54569 0.641214C7.25021 0.3451 6.807 0.3451 6.51152 0.641214L4.34471 2.81271L2.17789 0.641214C1.88241 0.3451 1.4392 0.3451 1.14373 0.641214C0.84825 0.937327 0.84825 1.3815 1.14373 1.67761L3.31054 3.84911L1.14373 6.02061C0.84825 6.31672 0.84825 6.76089 1.14373 7.05701C1.29146 7.20506 1.48845 7.25442 1.68543 7.25442C1.88241 7.25442 2.0794 7.20506 2.22713 7.05701L4.39395 4.88551L6.56077 7.05701C6.70851 7.20506 6.90549 7.25442 7.10247 7.25442C7.29946 7.25442 7.49644 7.20506 7.64418 7.05701C7.93965 6.76089 7.93965 6.31672 7.64418 6.02061L5.47736 3.84911L7.64418 1.67761C7.84116 1.3815 7.84116 0.937327 7.54569 0.641214Z" fill="#8B83BA"/>
</svg>
